
<?xml version="1.0" encoding="UTF-8"?>
<svg xmlns="http://www.w3.org/2000/svg" width="203" height="28" viewBox="0 0 203 28" fill="current">
  <path d="M28.5417 5.44675H48.6424V0.541637H28.5417V5.45697V5.44675Z" fill="white"></path>
  <path d="M138.804 4.7927H138.896H143.178H143.842L146.346 0.429192H141.359L138.804 4.7927Z" fill="white"></path>
  <path d="M135.166 4.79268L138.038 0.42918H113.952L116.21 4.23064L116.537 4.79268H121.565H135.166Z" fill="white"></path>
  <path d="M138.017 6.24379H137.956L135.871 9.81022L130.231 19.1401L122.444 6.24379H117.396H117.344L130.231 27.581L132.785 23.3606L140.961 9.82044L143.127 6.24379H143.004H138.017Z" fill="white"></path>
  <path d="M0 5.14018H8.51241V27.3869H13.581V5.14018H22.0934V0.541637H0V5.1504V5.14018Z" fill="white"></path>
  <path d="M33.5694 16.3401H48.111V11.619H28.5417V27.3869H48.6424V22.4H33.5694V16.3401Z" fill="white"></path>
  <path d="M69.4788 23.2482C62.8467 23.2482 60.2715 18.6088 60.2306 14.1533C60.1897 9.66715 62.9897 4.83358 69.4788 4.83358C71.8189 4.83358 74.1999 5.64088 75.9576 7.36788L79.3299 4.10803C76.5707 1.37956 73.1167 0 69.4686 0C59.7605 0 55.1926 7.13285 55.2335 14.1533C55.2744 21.1328 59.4948 28 69.4686 28C73.3416 28 76.908 26.7328 79.6773 24.0146L76.2233 20.5197C74.4554 22.2876 71.8087 23.2482 69.4686 23.2482H69.4788Z" fill="white"></path>
  <path d="M104.274 11.8949H91.0716V0.572262H86.0132V27.4277H91.0716V16.5752H104.274V27.4277H109.302V0.572262H104.274V11.8949Z" fill="white"></path>
  <path d="M150.26 27.3971H155.318V17.454H168.787V12.7737H155.318V5.44671H169.553V0.572262H150.26V27.3971Z" fill="white"></path>
  <path d="M196.143 0.541637L189.01 11.6292L182.174 0.541637H176.155V0.766455L186.476 16.3095V27.3971H191.534V16.3095L202.244 0.766455V0.541637H196.143Z" fill="white"></path>
</svg>
